<svg xmlns="http://www.w3.org/2000/svg" viewBox="0 0 512 512"><defs><linearGradient id="g" x1="0" y1="0" x2="1" y2="1"><stop stop-color="#fdf6e9"/><stop offset="1" stop-color="#cfe4d7"/></linearGradient></defs><rect width="512" height="512" rx="112" fill="url(#g)"/><path d="M256 366c-69-31-111-82-112-139 48 5 86 26 112 61 26-35 64-56 112-61-1 57-43 108-112 139Z" fill="#e9879b" opacity=".95"/><path d="M256 331c-37-48-45-101 0-164 45 63 37 116 0 164Z" fill="#f4b5bf"/><path d="M177 355c43 24 115 29 158 0" fill="none" stroke="#4e7c63" stroke-width="20" stroke-linecap="round"/><circle cx="379" cy="139" r="62" fill="#fff" stroke="#4e7c63" stroke-width="14"/><path d="M350 139h58M379 110v58" stroke="#4e7c63" stroke-width="14" stroke-linecap="round"/></svg>